<?xml version="1.0" encoding="utf-8"?>
<!-- Generator: Adobe Illustrator 28.1.0, SVG Export Plug-In . SVG Version: 6.00 Build 0)  -->
<svg version="1.1" id="Capa_1" xmlns="http://www.w3.org/2000/svg" xmlns:xlink="http://www.w3.org/1999/xlink" x="0px" y="0px"
	 viewBox="0 0 1000 262" style="enable-background:new 0 0 1000 262;" xml:space="preserve">
<style type="text/css">
	.st0{fill:#0AE98A;}
</style>
<g>
	<g>
		<path class="st0" d="M130.6,262c-10.5,0-20.3-4.1-27.7-11.5l-91.4-91.7C4.1,151.3,0,141.4,0,130.9s4.1-20.4,11.5-27.8l91.7-91.6
			C110.7,4.1,120.5,0,130.9,0c0,0,0.1,0,0.1,0c10.5,0,20.3,4.1,27.7,11.6L220.5,74c7.4,7.5,11.4,17.3,11.4,27.9
			c0,10.5-4.1,20.4-11.6,27.8l-58.2,57.9L133,158.1l56.7-56.4l-58.8-59.4L42.2,131l88.4,88.7l31.5-31.8l29.3,29.2l-33,33.3
			C151,257.9,141.1,262,130.6,262C130.6,262,130.6,262,130.6,262z"/>
	</g>
	<path class="st0" d="M273.5,234.7V27.5h97.6c38.4,0,62.7,27,62.7,66.2c0,39.2-24.2,66.2-62.7,66.2h-52.6v74.8H273.5z M318.5,120.7
		h47.3c13.3,0,21.6-7.1,21.6-20.5V87.2c0-13.4-8.3-20.5-21.6-20.5h-47.3V120.7z"/>
	<path class="st0" d="M497.4,234.7c-29.9,0-43.5-15.1-43.5-42.7V27.5h43.8v173h19.5v34.1H497.4z"/>
	<path class="st0" d="M664.7,234.7c-15.7,0-26.9-10.7-29.6-27.3h-1.8c-4.7,20.2-21.9,30.9-45.5,30.9c-31,0-48.2-18.4-48.2-45.4
		c0-32.9,25.4-48.7,66.5-48.7h24.5v-18.3c0-15.1-7.4-24.6-25.7-24.6c-17.4,0-26.6,8.9-33.4,18.4l-26-23.1
		c12.4-18.4,30.2-29.7,62.7-29.7c43.8,0,66.2,20.2,66.2,57v76.7h14.5v34.1H664.7z M630.7,187.5v-18.4h-21.3
		c-16.9,0-25.7,6.2-25.7,17.5v4.5c0,11.3,7.4,16.6,20.4,16.6C618.5,207.7,630.7,201.7,630.7,187.5z"/>
	<path class="st0" d="M762.9,234.7c-30.2,0-46.1-15.7-46.1-45.4V103h-21.9V68.9h10.9c11.8,0,15.4-5.9,15.4-16.6V26.7h39.3v42.1h30.8
		V103h-30.8v97.5h28.4v34.1H762.9z"/>
	<path class="st0" d="M810.2,234.7V200l77.2-96.9h-74.5V68.9h125.4v34.4l-77.5,97.2h79.5v34.1H810.2z"/>
	<g>
		<rect x="961.1" y="68.9" class="st0" width="36" height="165.8"/>
		<ellipse class="st0" cx="979.1" cy="27.1" rx="20.9" ry="21"/>
	</g>
</g>
</svg>
