<?xml version="1.0" encoding="UTF-8"?>
<svg version="1.1" xmlns="http://www.w3.org/2000/svg" width="3022" height="661">
<path d="M0 0 C5.05074844 0.01748627 10.10148028 0.01141354 15.15225053 0.0083909 C23.87542006 0.00630675 32.5984687 0.01871693 41.32160783 0.04134226 C53.93334464 0.07403198 66.54502378 0.08428652 79.15679836 0.08929422 C99.62501657 0.09802044 120.09317054 0.124563 140.56135392 0.16250467 C160.4288637 0.19929429 180.29635596 0.22757192 200.16389298 0.24453592 C201.39121679 0.24558682 202.6185406 0.24663771 203.88305604 0.24772045 C210.04098214 0.25294109 216.19890835 0.25799581 222.35683465 0.26296806 C273.33732424 0.30434674 324.31774413 0.37472177 375.29817033 0.46426249 C375.38993315 51.16601395 375.46031393 101.86775694 375.50243165 152.56957526 C375.50743385 158.56946463 375.5126112 164.56935383 375.51789689 170.56924295 C375.51947075 172.36077969 375.51947075 172.36077969 375.52107641 174.18850909 C375.53843258 193.47084917 375.56994358 212.75314104 375.60678151 232.03545262 C375.64432473 251.85375196 375.66643431 271.67202623 375.67452431 291.49035966 C375.67998447 303.69734445 375.69716401 315.90419293 375.7298362 328.11113571 C375.75114972 336.50726434 375.75733275 344.90332358 375.75217584 353.29947723 C375.74963994 358.12747222 375.75323674 362.95523081 375.77499223 367.78318262 C375.98134051 416.03829833 368.98624971 463.98609127 349.29817033 508.46426249 C348.91934709 509.32213358 348.54052384 510.18000467 348.15022111 511.06387186 C332.80080724 545.39725971 309.45803987 577.59494665 279.29817033 600.46426249 C278.67523088 600.94186014 278.05229142 601.4194578 277.41047502 601.91152811 C240.25653964 630.23104411 196.58545917 646.33276194 151.04817033 655.27676249 C150.33705094 655.41801554 149.62593156 655.55926859 148.8932631 655.70480204 C85.0417479 668.2536013 22.69417479 661.46426249 -43.70182967 661.46426249 C-43.70182967 510.65426249 -43.70182967 359.84426249 -43.70182967 204.46426249 C109.58868128 204.46426249 109.58868128 204.46426249 141.29817033 233.46426249 C142.10899064 234.1925828 142.91981095 234.92090311 143.75520158 235.67129374 C161.86592324 252.76705377 172.856648 276.86986698 173.59895158 301.76113749 C173.61837703 303.91209498 173.62193556 306.06324677 173.61067033 308.21426249 C173.60503068 309.35169901 173.59939103 310.48913553 173.59358048 311.66103983 C173.16949185 341.20868084 160.86217309 365.40739294 140.08112931 386.04580545 C123.67615786 401.7824926 100.70345851 413.63109495 77.56818986 413.57778788 C76.46750169 413.57771235 75.36681352 413.57763681 74.23277116 413.57755899 C73.06068101 413.57239771 71.88859086 413.56723642 70.68098283 413.56191874 C69.46869004 413.56050379 68.25639726 413.55908884 67.00736833 413.55763102 C63.1459436 413.55204593 59.28457745 413.5394961 55.42317033 413.52676249 C52.80077533 413.52174556 50.17837943 413.51718299 47.55598283 413.51309061 C41.13669211 413.50208138 34.7174354 413.48535803 28.29817033 413.46426249 C28.12964555 413.99449015 27.96112077 414.52471781 27.78748918 415.07101297 C25.8351359 421.08336064 23.56658066 426.91875768 21.15754533 432.76113749 C20.75344438 433.74825724 20.34934342 434.73537699 19.93299699 435.75240946 C18.64079936 438.90749391 17.34467897 442.06094743 16.04817033 445.21426249 C14.37515049 449.29191849 12.70378149 453.37025017 11.03254533 457.44863749 C10.60268327 458.49684671 10.17282121 459.54505594 9.72993302 460.62502909 C3.20459478 476.55184118 -3.24319794 492.51031475 -9.70182967 508.46426249 C1.00094915 508.37907648 11.70359146 508.28390837 22.40617394 508.1767354 C27.37828363 508.12724382 32.35037673 508.08091892 37.32258439 508.04238749 C73.48969809 508.18083545 73.48969809 508.18083545 109.23567033 503.33926249 C110.21600236 503.12825907 111.19633439 502.91725565 112.20637345 502.69985819 C129.12399395 498.86636862 145.10498818 492.78666744 160.29817033 484.46426249 C161.64571378 483.74660273 162.99337226 483.02915891 164.34113908 482.31191874 C189.48134238 468.74185439 211.5191236 449.59891136 228.29817033 426.46426249 C228.70986466 425.90223124 229.121559 425.34019999 229.54572892 424.76113749 C245.93297364 402.12402478 257.45515029 375.75999854 263.29817033 348.46426249 C263.54373673 347.3473704 263.54373673 347.3473704 263.79426408 346.20791483 C274.26524391 296.0705269 261.92654511 242.57559429 234.29817033 200.02676249 C201.59917362 153.20925804 155.19492559 123.76998434 99.18977189 112.92568827 C20.8791109 100.42930619 -59.4011609 110.8151504 -138.70182967 110.46426249 C-138.70182967 292.29426249 -138.70182967 474.12426249 -138.70182967 661.46426249 C-187.87182967 661.46426249 -237.04182967 661.46426249 -287.70182967 661.46426249 C-287.79019299 611.03429543 -287.86397949 560.60440204 -287.90609099 510.17437958 C-287.91109316 504.20582153 -287.91627051 498.23726365 -287.92155623 492.26870584 C-287.9231301 490.48653442 -287.9231301 490.48653442 -287.92473575 488.66835953 C-287.942089 469.49015928 -287.97359836 450.31200754 -288.01044086 431.13383596 C-288.04799227 411.42062297 -288.07009537 391.70743518 -288.07818365 371.99418789 C-288.08364214 359.853231 -288.10081235 347.71241124 -288.13349554 335.57149661 C-288.15481924 327.21927911 -288.16098986 318.86713137 -288.15583518 310.5148887 C-288.15330083 305.71309773 -288.15687765 300.91154448 -288.17865157 296.109797 C-288.52654303 215.25942474 -266.73996953 135.48627837 -209.07682967 76.58926249 C-203.89112159 71.51596137 -198.40874934 66.93598585 -192.70182967 62.46426249 C-191.25936873 61.29637186 -191.25936873 61.29637186 -189.78776717 60.10488749 C-156.0650534 33.29746438 -115.75347613 17.52617978 -74.26432967 7.27676249 C-73.36174422 7.05077372 -72.45915877 6.82478495 -71.52922225 6.59194803 C-68.94893845 5.97906091 -66.3622087 5.42643319 -63.76422954 4.89450932 C-62.35372564 4.60025754 -60.94558198 4.29452107 -59.53969073 3.97896576 C-39.7824184 -0.3720407 -20.10891002 -0.08754557 0 0 Z " fill="#7D49D3" transform="translate(287.70182967185974,-0.4642624855041504)"/>
<path d="M0 0 C0 -6.6 0 -13.2 0 -20 C21.78 -20 43.56 -20 66 -20 C66.08832938 13.45305267 66.162129 46.90599134 66.20426132 80.3591257 C66.20926361 84.31656577 66.21444095 88.2740056 66.21972656 92.23144531 C66.2207758 93.01923664 66.22182505 93.80702797 66.22290608 94.61869176 C66.24026907 107.34239413 66.27178388 120.06602356 66.30861118 132.78968279 C66.34613533 145.86400863 66.36825999 158.9382965 66.37635398 172.01267397 C66.38181808 180.0678044 66.39901924 188.12272856 66.43166587 196.17779543 C66.45548756 202.37446162 66.45779112 208.57097349 66.45243073 214.76767921 C66.45352397 217.29507141 66.46138354 219.822472 66.4768219 222.34981728 C66.59567925 242.82557247 63.92939749 260.05730393 56 279 C55.6901416 279.74846191 55.3802832 280.49692383 55.06103516 281.26806641 C40.59003147 315.93351814 14.19619216 343.54383979 -20.765625 358.03515625 C-55.48419621 371.69631299 -95.1101045 373.55532715 -130.125 359.75 C-142.1776591 354.35757608 -153.63252156 348.21785008 -164 340 C-162.49627369 336.5006284 -160.47292238 334.19831345 -157.81323242 331.4909668 C-156.94860886 330.60712814 -156.08398529 329.72328949 -155.19316101 328.81266785 C-154.24781976 327.85763397 -153.3019084 326.90316413 -152.35546875 325.94921875 C-151.38381193 324.96605173 -150.41215771 323.98288214 -149.44050598 322.99971008 C-147.40585474 320.94408984 -145.36661838 318.89313283 -143.32495117 316.84448242 C-140.70848419 314.21701289 -138.11110277 311.5714878 -135.51769543 308.92128277 C-133.51943675 306.8858158 -131.50792552 304.86385171 -129.49251747 302.84537697 C-128.52866312 301.8754654 -127.56981826 300.90054896 -126.61614037 299.9206295 C-125.28330745 298.55375147 -123.92955691 297.20736438 -122.57495117 295.86206055 C-121.81043137 295.09024948 -121.04591156 294.31843842 -120.25822449 293.52323914 C-118 292 -118 292 -115.38447571 292.19075012 C-112.64242467 293.12135489 -110.02123794 294.19810172 -107.375 295.375 C-87.76610679 303.72023623 -67.15587927 304.09079909 -47.25 296.375 C-28.19374427 288.48887362 -14.49456622 273.65596747 -6.125 255.0625 C-0.35753646 239.41529299 -0.54840956 224.06095039 -0.59702349 207.56293035 C-0.60472615 204.12181635 -0.59754539 200.68072395 -0.59286499 197.23960876 C-0.58743707 191.46446356 -0.59451966 185.68943418 -0.60888672 179.91430664 C-0.62519978 173.28124669 -0.61992256 166.64846371 -0.6034075 160.01541048 C-0.589698 154.27475433 -0.58791894 148.53418051 -0.59572351 142.79351324 C-0.60034955 139.38492558 -0.60116782 135.97646711 -0.59111404 132.56788826 C-0.53774975 106.20524722 -2.83842813 82.5362405 -21 62 C-37.29241822 45.94647354 -57.20918592 39.6875 -79.5703125 39.6875 C-99.15377465 39.94548573 -117.9991771 46.9774704 -132 61 C-147.14200456 77.79427112 -155.17796553 98.02742254 -154.3203125 120.70703125 C-153.00781929 141.88160688 -143.04578971 159.80746332 -127.73046875 174.12109375 C-114.98201237 184.96679544 -98.83477955 192.25317059 -82 193 C-81.27167969 193.0515625 -80.54335937 193.103125 -79.79296875 193.15625 C-68.80110392 193.59373716 -57.63869629 190.46969735 -47 188 C-42.5016715 197.43457032 -38.75357231 207.12891754 -35 216.875 C-34.39091648 218.44933155 -33.78154299 220.02355095 -33.171875 221.59765625 C-31.99291301 224.64298984 -30.81733829 227.68959578 -29.64453125 230.73730469 C-28.58818661 233.48104695 -27.52342113 236.22120957 -26.44921875 238.95800781 C-25.99160156 240.12944336 -25.53398437 241.30087891 -25.0625 242.5078125 C-24.66160156 243.52762207 -24.26070312 244.54743164 -23.84765625 245.59814453 C-23 248 -23 248 -23 250 C-57.71017074 264.0219895 -98.46836443 263.68971825 -133 249.125 C-136.0248834 247.79992811 -139.01940002 246.42168837 -142 245 C-142.93561768 244.55503174 -142.93561768 244.55503174 -143.89013672 244.10107422 C-157.32915258 237.58078694 -168.27342802 228.20631029 -179 218 C-179.70769531 217.35675781 -180.41539062 216.71351563 -181.14453125 216.05078125 C-205.1136734 193.5461488 -219.82957184 158.50611633 -221.12109375 125.94726562 C-222.33692235 83.6121136 -211.76269632 43.1073727 -182.34765625 11.421875 C-166.19676067 -5.23961461 -146.47885897 -17.85022059 -124 -24 C-123.27296875 -24.19899902 -122.5459375 -24.39799805 -121.796875 -24.60302734 C-79.51980469 -35.57673118 -35.02737068 -25.01955049 0 0 Z " fill="#20004A" transform="translate(2956,210)"/>
<path d="M0 0 C161.26813209 0 161.26813209 0 175.8125 4.25 C176.58835449 4.46688477 177.36420898 4.68376953 178.16357422 4.90722656 C197.14758526 10.3846572 214.98258348 19.09797508 230 32 C230.54640137 32.46809082 231.09280273 32.93618164 231.65576172 33.41845703 C258.74209851 56.90794191 277.02924662 90.32879051 279.875 126.375 C281.75172883 165.78630533 269.11539778 201.73918693 242.625 231.1875 C237.52999495 236.71057447 231.9694169 241.45024385 226 246 C224.74316406 246.99773437 224.74316406 246.99773437 223.4609375 248.015625 C203.31468186 263.47528945 176.24817825 274.15908766 150.68774414 274.11352539 C149.99421844 274.11367142 149.30069275 274.11381744 148.58615112 274.1139679 C146.31911977 274.1132774 144.05217305 274.10552592 141.78515625 274.09765625 C140.20332382 274.095789 138.62149081 274.09436655 137.03965759 274.09336853 C132.89523699 274.08956755 128.75085195 274.07975814 124.60644531 274.06866455 C120.36979656 274.0583982 116.13314201 274.05385976 111.89648438 274.04882812 C103.59764001 274.03813351 95.29882444 274.02108643 87 274 C88.81289936 267.5815265 90.91120385 261.43325518 93.546875 255.30859375 C93.88116516 254.51961197 94.21545532 253.73063019 94.55987549 252.91773987 C95.61834635 250.42220784 96.683863 247.92976515 97.75 245.4375 C98.79626031 242.9791286 99.84101126 240.52012081 100.88537598 238.0609436 C101.57318627 236.44188385 102.26189872 234.82320704 102.95153809 233.20492554 C105.64411439 226.87627889 108.26838741 220.52099012 110.84295654 214.14341736 C112.89245506 209.10754494 112.89245506 209.10754494 114 208 C116.79172069 207.88886675 119.56277797 207.83830029 122.35546875 207.82421875 C124.11133952 207.8009757 125.86719887 207.77685672 127.62304688 207.75195312 C130.38508228 207.71718148 133.14671041 207.68770126 135.90893555 207.67407227 C157.70559508 207.54551924 175.91143876 202.7305072 192 187 C205.30334888 172.42026175 212.48973574 154.81424797 212.21484375 134.9609375 C211.10083472 119.60786765 206.60174953 106.16756151 197 94 C196.39285156 93.22785156 195.78570313 92.45570313 195.16015625 91.66015625 C181.79026614 75.66550243 164.21433652 69.02143365 144 67 C118.26 66.67 92.52 66.34 66 66 C66 169.95 66 273.9 66 381 C44.22 381 22.44 381 0 381 C0 255.27 0 129.54 0 0 Z " fill="#20004A" transform="translate(734,81)"/>
<path d="M0 0 C0.70310303 0.00182281 1.40620605 0.00364563 2.13061523 0.00552368 C12.78061683 0.05196088 22.90572844 0.56359539 33.25 3.3125 C33.90242676 3.48410645 34.55485352 3.65571289 35.22705078 3.83251953 C52.37194901 8.45433141 67.04975812 15.66231859 81.25 26.3125 C81.58 20.0425 81.91 13.7725 82.25 7.3125 C104.36 7.3125 126.47 7.3125 149.25 7.3125 C149.25 97.4025 149.25 187.4925 149.25 280.3125 C127.14 280.3125 105.03 280.3125 82.25 280.3125 C82.21132812 264.5653125 82.21132812 264.5653125 82.171875 248.5 C82.14669286 241.82810663 82.12051067 235.15624169 82.08984375 228.484375 C82.04140932 217.9069034 81.99692441 207.32952634 81.97900391 196.75195312 C81.96592987 189.04613218 81.93882004 181.34050503 81.89538693 173.63479328 C81.87290038 169.56086458 81.85708153 165.48717375 81.85811615 161.41317749 C81.85887044 157.56511087 81.84061731 153.71756748 81.80883217 149.86963654 C81.80043251 148.47023157 81.79851411 147.07076721 81.80419731 145.67134857 C81.87935616 124.28759362 75.22617327 104.54694302 60.3125 88.9375 C44.11814908 73.76126152 24.35486051 66.6015321 2.39794922 66.84399414 C-17.96756143 67.52119423 -36.51624466 75.69340569 -50.75 90.3125 C-61.28081484 101.63239869 -67.85484302 115.11871616 -70.75 130.3125 C-70.976875 131.4675 -71.20375 132.6225 -71.4375 133.8125 C-73.4170124 155.98303892 -67.95697081 175.70379667 -53.5859375 192.90234375 C-51.36723639 195.43745756 -49.08851701 197.8878271 -46.75 200.3125 C-46.15960937 200.94027344 -45.56921875 201.56804687 -44.9609375 202.21484375 C-33.47545589 213.37144593 -15.43604157 219.24903955 0.25 220.3125 C0.94351563 220.3640625 1.63703125 220.415625 2.3515625 220.46875 C8.04721116 220.69733791 13.46962963 219.90789251 19.0625 218.9375 C20.15679321 218.74849121 20.15679321 218.74849121 21.27319336 218.55566406 C25.15910746 217.83831958 28.59788828 216.77844362 32.25 215.3125 C33.57 215.3125 34.89 215.3125 36.25 215.3125 C36.66773682 216.39966309 37.08547363 217.48682617 37.51586914 218.60693359 C39.10160693 222.7335378 40.68782461 226.85995742 42.27416992 230.98632812 C42.95398347 232.75483437 43.63367566 234.52338726 44.31323242 236.29199219 C44.97346856 238.01026772 45.63389981 239.7284683 46.29452515 241.44659424 C46.95542607 243.16573881 47.61576468 244.88509966 48.27554321 246.60467529 C49.93211911 250.91588612 51.60447994 255.21983864 53.30810547 259.51269531 C53.63419296 260.33806793 53.96028046 261.16344055 54.29624939 262.01382446 C54.91479479 263.57687655 55.53744399 265.13831287 56.16481018 266.69784546 C57.35655421 269.71555064 58.25 272.03673494 58.25 275.3125 C23.16884405 291.76773283 -17.0228757 290.53585024 -52.9375 277.5625 C-86.43567097 264.73332471 -112.43743262 236.50916527 -127.33740234 204.31567383 C-132.63095379 192.11576632 -136.25285808 178.51456963 -137.75 165.3125 C-137.85957031 164.42691406 -137.96914062 163.54132813 -138.08203125 162.62890625 C-142.21666335 122.88130968 -133.34444139 82.57230442 -107.86938477 51.17333984 C-106.50958951 49.54120094 -105.13295441 47.92503773 -103.75 46.3125 C-103.31220215 45.79107422 -102.8744043 45.26964844 -102.42333984 44.73242188 C-85.77942698 25.02366103 -63.78863083 12.25484989 -39.1875 5.0625 C-38.34944824 4.81604736 -37.51139648 4.56959473 -36.64794922 4.31567383 C-24.50313427 0.9209927 -12.57949691 -0.06788167 0 0 Z " fill="#20004A" transform="translate(2269.75,182.6875)"/>
<path d="M0 0 C0.03758423 -0.85549438 0.03758423 -0.85549438 0.07592773 -1.72827148 C0.19156549 -4.29826157 0.31443624 -6.86785527 0.4375 -9.4375 C0.47681641 -10.33533203 0.51613281 -11.23316406 0.55664062 -12.15820312 C0.59853516 -13.01220703 0.64042969 -13.86621094 0.68359375 -14.74609375 C0.73858032 -15.93223267 0.73858032 -15.93223267 0.79467773 -17.14233398 C1 -19 1 -19 2 -20 C23.78 -20 45.56 -20 68 -20 C68 70.09 68 160.18 68 253 C45.89 253 23.78 253 1 253 C0.97421875 242.41808594 0.9484375 231.83617187 0.921875 220.93359375 C0.89669517 214.21157028 0.87051498 207.48957508 0.83984375 200.76757812 C0.79139445 190.10880763 0.7469153 179.45013119 0.72900391 168.79125977 C0.71593696 161.02648539 0.68884484 153.2619036 0.64538693 145.49723774 C0.62288468 141.39148315 0.6070825 137.28596507 0.60811615 133.18014336 C0.60886949 129.30335383 0.5906532 125.42708488 0.55883217 121.5504303 C0.55042087 120.13931726 0.54852238 118.72814521 0.55419731 117.31701851 C0.59906956 104.42663046 -1.65220691 92.17616292 -7.75 80.6875 C-8.09724121 80.02145752 -8.44448242 79.35541504 -8.80224609 78.66918945 C-18.62175087 60.37686752 -34.96511624 49.58496558 -54.21875 42.87890625 C-74.2994839 37.2379474 -95.17788459 40.37470735 -113.625 49.625 C-131.93122202 60.30362951 -144.52884402 77.19524689 -150.375 97.5625 C-155.28903755 118.12944166 -152.60601569 138.09150417 -142.23828125 156.5625 C-130.71450915 175.0262988 -113.53916771 187.09552133 -92.41796875 192.3046875 C-77.94217536 194.95637886 -62.82488394 193.92474406 -49 189 C-48.01 188.67 -47.02 188.34 -46 188 C-42.71144108 194.30572282 -40.02437575 200.73213323 -37.453125 207.359375 C-37.03705994 208.42617493 -36.62099487 209.49297485 -36.19232178 210.59210205 C-35.31972599 212.83356888 -34.44917401 215.07583232 -33.58056641 217.31884766 C-32.24767018 220.75600794 -30.90344957 224.1885981 -29.55859375 227.62109375 C-28.71024553 229.80441876 -27.8625657 231.98800361 -27.015625 234.171875 C-26.61257141 235.19794861 -26.20951782 236.22402222 -25.79425049 237.28118896 C-25.42676697 238.23608215 -25.05928345 239.19097534 -24.68066406 240.17480469 C-24.35519592 241.01227234 -24.02972778 241.84973999 -23.69439697 242.71258545 C-23 245 -23 245 -23 249 C-57.80833899 264.40191991 -98.92568693 264.3872955 -134.34375 250.91015625 C-169.11753658 237.0077674 -194.81372978 208.19982318 -209.55639648 174.24902344 C-223.99272921 139.37412512 -223.39185714 97.70425836 -210.8125 62.375 C-205.23155114 48.92123927 -198.32265715 36.21136402 -189 25 C-188.53835449 24.43442383 -188.07670898 23.86884766 -187.60107422 23.28613281 C-163.54804465 -6.12347708 -132.67411034 -21.32506928 -95.3984375 -26.5 C-62.49149099 -29.64147461 -25.5148395 -22.01108323 0 0 Z " fill="#20004A" transform="translate(1803,209)"/>
<path d="M0 0 C21.78 0 43.56 0 66 0 C66.01458252 4.77879639 66.02916504 9.55759277 66.04418945 14.48120117 C66.09458338 30.29108899 66.1610384 46.1008794 66.23571491 61.91067028 C66.28058959 71.49373967 66.32002328 81.07677258 66.34643555 90.65991211 C66.36948327 99.01720317 66.40295641 107.37437799 66.44870156 115.73157674 C66.47254279 120.15245561 66.49133097 124.57322002 66.49761391 128.99416161 C66.50370623 133.1646979 66.52385374 137.33494166 66.55427551 141.50536919 C66.56298983 143.02697968 66.56679221 144.54862851 66.56500816 146.07026291 C66.54850216 166.66469266 71.96638946 181.92942502 85.94921875 197.1171875 C98.48407189 209.38940562 114.19093628 213.41698338 131.20410156 213.36572266 C148.30519665 213.0691876 162.07037165 206.79968458 174.26953125 194.85546875 C188.25205155 180.23283307 191.29229327 163.69976596 191.31884766 144.17724609 C191.32816155 142.5994313 191.33833237 141.02162138 191.34928894 139.44381714 C191.37643838 135.18835694 191.39169336 130.93292956 191.40471697 126.67740583 C191.42041385 122.21976453 191.44718296 117.76218961 191.4727478 113.30459595 C191.51942 104.87595386 191.55621984 96.44729913 191.58942068 88.01859438 C191.62772403 78.41753663 191.67711253 68.81654574 191.72740483 59.21554446 C191.83055267 39.477073 191.9184055 19.73857314 192 0 C213.78 0 235.56 0 258 0 C258 90.09 258 180.18 258 273 C236.22 273 214.44 273 192 273 C192 266.73 192 260.46 192 254 C189.091875 256.165625 189.091875 256.165625 186.125 258.375 C173.18796924 267.70756828 159.65580795 275.41766025 144 279 C143.20730713 279.18328857 142.41461426 279.36657715 141.59790039 279.55541992 C133.83394046 281.16537866 126.2231136 281.34746735 118.3125 281.3125 C117.64947876 281.31034485 116.98645752 281.3081897 116.30334473 281.30596924 C106.17737569 281.25316941 96.78514198 280.77629831 87 278 C85.92733887 277.70198486 85.92733887 277.70198486 84.83300781 277.39794922 C57.85126243 269.73072272 33.17239295 251.47908649 19 227 C2.06882699 195.79157141 -0.47064773 166.91239857 -0.30418181 132.04803371 C-0.28520892 127.39297765 -0.28364856 122.73791347 -0.28010559 118.08282471 C-0.27084485 109.30027612 -0.24631349 100.51784185 -0.21605712 91.73534322 C-0.18232521 81.72299422 -0.16598025 71.71063927 -0.15097082 61.69824743 C-0.11975735 41.13208731 -0.06482166 20.56608355 0 0 Z " fill="#20004A" transform="translate(1143,189)"/>
<path d="M0 0 C0.98226562 0.47308594 1.96453125 0.94617188 2.9765625 1.43359375 C32.48585248 16.44336229 50.78096618 44.56810589 60.95043945 75.17089844 C66.13061113 91.46580739 67.15653232 107.93855047 67.11352539 124.9362793 C67.11324276 126.51423643 67.11340273 128.0921937 67.1139679 129.67015076 C67.11425292 133.92144163 67.10840413 138.17270385 67.10139394 142.4239881 C67.09511104 146.87891476 67.09455271 151.33384218 67.09336853 155.78877258 C67.0902697 164.21032956 67.08207596 172.63187343 67.07201904 181.05342466 C67.06081277 190.64720763 67.05533611 200.24099125 67.05032361 209.83477914 C67.03989204 229.55652835 67.02156469 249.27825961 67 269 C45.22 269 23.44 269 1 269 C0.97812622 261.975979 0.97812622 261.975979 0.95581055 254.81005859 C0.90539797 239.31150516 0.83893935 223.8130509 0.76428509 208.31459618 C0.71942662 198.92100526 0.67998931 189.52745142 0.65356445 180.13378906 C0.63050348 171.94092624 0.59701587 163.74818173 0.55129844 155.55541289 C0.52747486 151.22225132 0.50867523 146.88920612 0.50238609 142.55598068 C0.49628563 138.46669585 0.47610975 134.37770835 0.44572449 130.28853416 C0.43702295 128.79798266 0.43320505 127.30739216 0.43499184 125.81681633 C0.44545841 113.04183776 -0.76529468 100.37985049 -7 89 C-7.47050781 88.12859375 -7.94101563 87.2571875 -8.42578125 86.359375 C-16.46711806 72.618093 -30.50384042 61.7770183 -45.93579102 57.45825195 C-51.5978966 56.06552411 -56.99358753 55.64803063 -62.8125 55.6875 C-63.6890625 55.69313965 -64.565625 55.6987793 -65.46875 55.70458984 C-83.40711422 56.03911251 -96.77999944 63.33660319 -109 76 C-121.98749834 90.17257733 -125.4542311 106.35943181 -125.43237305 125.04980469 C-125.44140933 126.62791705 -125.45174107 128.20602244 -125.46325684 129.78411865 C-125.49063407 134.03122549 -125.50008488 138.27819847 -125.50611091 142.52538204 C-125.51554522 146.97768814 -125.54175237 151.4298962 -125.56611633 155.88214111 C-125.60964671 164.29655569 -125.63827611 172.71095109 -125.66143972 181.1254437 C-125.68856389 190.71205352 -125.73247072 200.29856406 -125.77772844 209.88510275 C-125.87038178 229.59002892 -125.93993576 249.29494568 -126 269 C-147.78 269 -169.56 269 -192 269 C-192 178.91 -192 88.82 -192 -4 C-170.22 -4 -148.44 -4 -126 -4 C-126 2.27 -126 8.54 -126 15 C-123.855 13.515 -121.71 12.03 -119.5 10.5 C-108.87046618 3.34894634 -97.88299536 -2.2386056 -85.75 -6.375 C-85.05414795 -6.61379883 -84.3582959 -6.85259766 -83.64135742 -7.09863281 C-56.45553349 -15.85741791 -25.28945513 -12.70055418 0 0 Z " fill="#20004A" transform="translate(2645,194)"/>
<path d="M0 0 C21.78 0 43.56 0 66 0 C66 103.95 66 207.9 66 315 C115.17 315 164.34 315 215 315 C215 336.78 215 358.56 215 381 C144.05 381 73.1 381 0 381 C0 255.27 0 129.54 0 0 Z " fill="#20004A" transform="translate(1912,82)"/>
<path d="M0 0 C21.78 0 43.56 0 66 0 C66 125.73 66 251.46 66 381 C44.22 381 22.44 381 0 381 C0 255.27 0 129.54 0 0 Z " fill="#20004A" transform="translate(1045,81)"/>
<path d="M0 0 C0 22.11 0 44.22 0 67 C-2.79014916 67.93004972 -5.27923179 68.26502761 -8.19018555 68.54345703 C-28.7353119 70.60357045 -46.43668541 79.42868467 -59.95703125 95.296875 C-63.50437094 100.06936813 -66.39278464 105.2603135 -69.1875 110.5 C-69.50871826 111.07314941 -69.82993652 111.64629883 -70.16088867 112.23681641 C-78.86786733 129.35371475 -77.61239228 149.26214475 -77.60750484 167.90288019 C-77.61067176 171.89071861 -77.63636691 175.87841676 -77.65948486 179.86618042 C-77.69976302 187.38793075 -77.72031855 194.90959503 -77.73345876 202.43143642 C-77.75242149 212.61662419 -77.80251975 222.80165843 -77.85070229 232.98674202 C-77.92560793 248.99115321 -77.95949223 264.99537908 -78 281 C-99.78 281 -121.56 281 -144 281 C-144 190.91 -144 100.82 -144 8 C-122.22 8 -100.44 8 -78 8 C-78 14.6 -78 21.2 -78 28 C-75.916875 26.55625 -73.83375 25.1125 -71.6875 23.625 C-49.60314375 8.75815682 -26.912775 0 0 0 Z " fill="#20004A" transform="translate(1579,181)"/>
</svg>
