<?xml version="1.0" encoding="UTF-8"?>
<!DOCTYPE svg PUBLIC "-//W3C//DTD SVG 1.1//EN" "http://www.w3.org/Graphics/SVG/1.1/DTD/svg11.dtd">
<!-- Creator: CorelDRAW -->
<svg xmlns="http://www.w3.org/2000/svg" xml:space="preserve" width="4.83937in" height="2.98323in" version="1.1" style="shape-rendering:geometricPrecision; text-rendering:geometricPrecision; image-rendering:optimizeQuality; fill-rule:evenodd; clip-rule:evenodd"
viewBox="0 0 5380.71 3316.94"
 xmlns:xlink="http://www.w3.org/1999/xlink"
 xmlns:xodm="http://www.corel.com/coreldraw/odm/2003">
 <defs>
  <style type="text/css">
   <![CDATA[
    .str2 {stroke:#DA2E26;stroke-width:14.71;stroke-miterlimit:2.61313}
    .str1 {stroke:#DA2E26;stroke-width:19.46;stroke-miterlimit:2.61313}
    .str0 {stroke:#DA2E26;stroke-width:2.08;stroke-miterlimit:2.61313}
    .fil1 {fill:none;fill-rule:nonzero}
    .fil2 {fill:#DA2E26}
    .fil0 {fill:#DA2E26;fill-rule:nonzero}
   ]]>
  </style>
 </defs>
 <g id="Layer_x0020_1">
  <metadata id="CorelCorpID_0Corel-Layer"/>
  <g id="_3007804294528">
   <g>
    <path class="fil0" d="M1374.99 3034.8l0 77.83 -288.39 0 0 -77.83 97.29 0 0 -255.38c0,-6.49 0,-12.97 0.35,-19.57 0.23,-6.6 0.58,-13.32 1.04,-20.04l-57.68 47.95c-5.1,3.94 -10.19,6.26 -15.06,7.07 -4.98,0.81 -9.73,0.81 -14.01,0 -4.4,-0.81 -8.34,-2.32 -11.81,-4.52 -3.48,-2.2 -6.02,-4.4 -7.64,-6.72l-34.05 -45.17 157.74 -132.38 88.95 0 0 428.76 83.39 0 -0.11 0z"/>
    <path class="fil0" d="M1781.16 2859.34c0,44.24 -4.75,82.58 -14.24,115.01 -9.5,32.43 -22.7,59.3 -39.49,80.61 -16.79,21.31 -36.71,37.18 -59.76,47.6 -23.05,10.42 -47.95,15.64 -74.82,15.64 -26.87,0 -51.65,-5.21 -74.47,-15.64 -22.82,-10.42 -42.5,-26.29 -59.3,-47.6 -16.68,-21.31 -29.77,-48.18 -39.15,-80.61 -9.38,-32.43 -14.01,-70.77 -14.01,-115.01 0,-44.24 4.75,-82.58 14.01,-115.01 9.38,-32.43 22.35,-59.3 39.15,-80.61 16.8,-21.31 36.37,-37.18 59.3,-47.49 22.82,-10.31 47.6,-15.4 74.47,-15.4 26.87,0 51.77,5.21 74.82,15.4 23.05,10.31 42.97,26.18 59.76,47.49 16.8,21.31 29.88,48.18 39.49,80.61 9.5,32.43 14.24,70.77 14.24,115.01zm-111.19 0c0,-34.98 -2.2,-63.59 -6.6,-85.94 -4.4,-22.35 -10.19,-39.84 -17.49,-52.58 -7.3,-12.74 -15.64,-21.43 -24.9,-26.29 -9.27,-4.75 -18.65,-7.18 -28.14,-7.18 -9.49,0 -18.76,2.43 -28.03,7.18 -9.15,4.75 -17.26,13.55 -24.32,26.29 -7.07,12.74 -12.74,30.34 -17.02,52.58 -4.29,22.35 -6.49,51.08 -6.49,85.94 0,34.86 2.08,63.93 6.49,86.17 4.29,22.24 9.96,39.72 17.02,52.58 7.07,12.86 15.17,21.66 24.32,26.41 9.15,4.75 18.42,7.18 28.03,7.18 9.61,0 18.88,-2.43 28.14,-7.18 9.27,-4.75 17.61,-13.55 24.9,-26.41 7.3,-12.86 13.09,-30.34 17.49,-52.58 4.4,-22.24 6.6,-50.96 6.6,-86.17z"/>
    <g>
     <rect class="fil0 str0" x="1289.4" y="2185.27" width="247.39" height="247.39"/>
     <rect class="fil0 str0" x="1536.78" y="1937.88" width="247.39" height="247.39"/>
     <rect class="fil0 str0" x="1784.06" y="1690.61" width="247.39" height="247.39"/>
     <rect class="fil0 str0" x="2031.45" y="1443.22" width="247.39" height="247.39"/>
     <rect class="fil0 str0" x="2031.45" y="1195.83" width="247.39" height="247.39"/>
     <rect class="fil0 str0" x="547.35" y="1443.22" width="247.39" height="247.39"/>
     <rect class="fil0 str0" x="547.35" y="1195.83" width="247.39" height="247.39"/>
     <rect class="fil0 str0" x="1042.01" y="1937.88" width="247.39" height="247.39"/>
     <rect class="fil0 str0" x="794.62" y="1690.61" width="247.39" height="247.39"/>
     <rect class="fil0 str0" x="1289.4" y="1195.83" width="247.39" height="247.39"/>
     <rect class="fil0 str0" x="794.62" y="948.44" width="247.39" height="247.39"/>
     <rect class="fil0 str0" x="1042.01" y="948.44" width="247.39" height="247.39"/>
     <rect class="fil0 str0" x="1536.78" y="948.44" width="247.39" height="247.39"/>
     <rect class="fil0 str0" x="1784.06" y="948.44" width="247.39" height="247.39"/>
    </g>
    <path class="fil1 str1" d="M2656.99 1470.55c-22.82,-116.05 -61.5,-226.43 -113.73,-328.69l134.82 -120.68 1.97 -31.39 -31.27 -2.43 -16.45 14.36 -13.55 -51.77 26.18 -22.82 -3.71 -26.41 -25.59 -7.41 -19.8 17.26 -19.57 -37.87 90.45 -78.64 17.14 -44.59 -46.56 10.77 105.16 -211.14 -223.65 74.82 17.14 -44.59 -46.44 10.77 -89.18 77.48 -40.42 -28.61 19.8 -17.26 -3.71 -26.41 -25.59 -7.41 -28.37 24.55 -42.85 -17.49 16.45 -14.36 1.97 -31.39 -31.27 -2.43 -141.53 122.88c-128.44,-87.67 -273.8,-152.42 -430.15,-188.21l36.14 -205 97.29 17.14 8.57 -48.65 -97.29 -17.14 17.14 -97.29 -48.65 -8.57 -17.14 97.29 -97.29 -17.14 -8.57 48.65 97.29 17.14 -35.9 203.49c-67.29,-12.62 -136.55,-19.92 -207.09,-21.43l0 -292.1 98.79 0 0 -49.34 -98.79 0 0 -98.79 -49.34 0 0 98.79 -98.79 0c0,0 0,49.34 0,49.34l98.79 0 0 291.98c-70.53,1.16 -139.68,8.11 -206.85,20.39l-36.14 -204.77 97.29 -17.14 -8.57 -48.65 -97.29 17.14 -17.14 -97.29 -48.65 8.57 17.14 97.29 -97.29 17.14 8.57 48.65 97.29 -17.14 36.37 206.04c-226.08,50.38 -429.23,161.22 -591.95,314.56 -27.1,-11.81 -47.25,-11.81 -72.85,-3.71 -6.6,-10.19 -9.96,-15.29 -21.77,-33.82 26.52,-37.3 23.98,-60.81 24.9,-64.16 10.19,-34.75 10.08,-38.57 -63.35,-50.84l-10.65 -17.26c-3.36,-5.45 -5.91,-5.67 -29.53,11.35l-12.28 -19.23c0,0 27.56,-3.59 22.93,-19.69 -14.59,-51.54 -81.07,-72.73 -126.48,-61.5 -13.43,3.36 -15.52,-4.86 -9.96,-9.03 4.4,-3.36 7.87,-5.33 7.41,-6.6 -0.46,-1.27 -6.37,-18.07 -4.17,-31.5 -12.28,-19.69 -36.95,-32.55 -57.1,-12.62 -1.04,1.04 -13.09,16.21 -4.4,31.04 0,0 25.71,34.17 21.08,46.21 -37.76,17.14 -45.4,21.2 -71.57,52.7 -40.88,5.21 -94.16,44.13 -115.82,59.53 -15.98,11.35 -12.28,13.2 14.83,-2.08 2.32,-0.93 12.74,-3.48 6.26,4.05 -5.33,4.05 -8.45,9.27 -3.36,17.84 0,0 18.07,23.28 3.48,-2.78 -2.43,-4.4 2.32,-7.87 8.23,-0.23 11.35,14.71 2.55,-1.85 3.48,-2.67 0.93,-0.7 11,7.18 6.37,-0.11 -6.14,-9.61 2.55,-5.91 9.96,-10.77 5.79,-3.82 3.01,-5.67 8.57,-9.38 4.63,-3.13 10.19,-2.78 16.79,-1.16 7.64,1.27 27.91,-3.24 46.68,-12.62 14.48,-6.49 23.51,-13.2 32.31,-24.44 6.02,0 15.75,1.16 30.58,-4.17 4.63,8.68 22.24,18.99 34.98,23.28 5.67,1.97 11.46,6.95 8.92,13.9 -4.86,27.91 13.09,91.5 40.08,87.44 3.24,5.67 17.95,28.26 29.53,38.34 6.72,5.79 9.15,11.35 8.57,15.87 -0.46,4.52 10.42,49.11 50.61,83.28 0,0 4.98,14.01 8.8,22.58 -19.69,39.72 -28.37,71 -21.54,108.52 -76.21,82 -179.29,350.7 -194.34,459.8m275.07 -658.43c-6.83,-10.54 -22.93,-10.89 -31.5,-8.45 -19.46,-2.67 11.46,-89.88 20.15,-105.16 2.67,-4.63 -2.08,-14.36 -13.09,-7.76 -21.77,12.16 -57.1,23.28 -72.97,22.58 -17.95,0.58 -13.9,8.57 -8.45,14.59 19.69,21.89 23.17,53.97 22.01,58.6 -1.27,4.63 -2.08,5.91 4.75,12.62 19.23,18.53 25.94,48.76 30.34,63.82 30,49.92 49.22,-43.9 48.65,-50.73l0.11 -0.12z"/>
    <line class="fil1 str2" x1="2819.48" y1="480.77" x2="2742.35" y2= "549.21" />
    <line class="fil1 str2" x1="2816.35" y1="516.09" x2="2784.15" y2= "479.84" />
    <path class="fil2" d="M155.77 1512.25c-7.76,50.5 -12.74,102.62 -14.83,154.85l12.86 0.58c3.01,-47.95 9.73,-105.97 15.17,-153.23l-13.09 -2.2 -0.11 0z"/>
    <path class="fil2" d="M161.56 1865.14l-14.01 1.62c5.67,52.12 14.36,103.31 25.83,153.46l16.56 -3.94c-12.51,-49.22 -22.01,-99.6 -28.49,-151.03l0.11 -0.11z"/>
    <path class="fil2" d="M253.86 2202.76l-20.85 8.57c19.34,48.65 41.58,95.78 66.37,141.3l24.21 -13.67c-25.94,-43.78 -49.34,-89.18 -69.72,-136.2z"/>
    <path class="fil2" d="M436.86 2499.14l-28.03 22.24c31.85,41.69 66.13,81.31 102.62,118.72l29.65 -30.23c-37.06,-34.75 -71.93,-71.69 -104.35,-110.72l0.12 0z"/>
    <path class="fil2" d="M693.28 2731.7l-29.53 41.46c42.16,31.39 86.28,60.22 132.15,86.17l27.33 -50.27c-44.94,-23.28 -88.37,-49.11 -129.83,-77.37l-0.11 0z"/>
    <path class="fil2" d="M2003.07 2805.71l27.1 50.15c45.63,-26.18 89.64,-55.02 131.57,-86.51l-29.53 -41.46c-41.35,28.37 -84.43,54.43 -129.26,77.94l0.12 -0.11z"/>
    <path class="fil2" d="M2283.35 2605.57l30 30.58c36.37,-37.3 70.42,-76.9 102.15,-118.48l-28.61 -22.82c-32.2,38.92 -66.71,75.98 -103.54,110.72z"/>
    <path class="fil2" d="M2499.01 2334.79l25.59 14.48c24.67,-45.4 46.79,-92.42 66.02,-140.83l-22.82 -9.5c-20.15,46.79 -43.2,92.19 -68.91,135.74l0.12 0.12z"/>
    <path class="fil2" d="M2630.7 2013.39l19.34 4.63c11.46,-49.92 20.04,-100.88 25.71,-152.88l-17.14 -1.97c-6.14,51.08 -15.52,101.23 -27.8,150.21l-0.12 0z"/>
    <path class="fil2" d="M2665.44 1666.98l16.68 -0.7c-2.32,-52.12 -7.64,-103.66 -15.75,-154.04l-14.59 2.43c4.05,45.75 10.42,105.63 13.67,152.3z"/>
    <g>
     <path class="fil0" d="M1113.47 3190.46c8.68,-7.64 18.42,-13.43 28.96,-17.14 10.65,-3.71 22.01,-5.67 34.17,-5.67 8.68,0 16.56,1.39 23.51,4.29 6.95,2.78 12.97,6.72 17.84,11.81 4.87,5.1 8.57,11 11.23,17.95 2.66,6.95 3.94,14.59 3.94,22.82l0 90.11 -19.69 -0c-4.05,0 -7.18,-0.58 -9.27,-1.62 -2.08,-1.16 -3.82,-3.48 -5.21,-6.95l-3.01 -7.87c-3.59,3.01 -7.07,5.79 -10.42,8.11 -3.36,2.32 -6.83,4.29 -10.31,5.91 -3.59,1.62 -7.41,2.78 -11.35,3.59 -4.05,0.81 -8.45,1.16 -13.43,1.16 -6.6,0 -12.51,-0.81 -17.95,-2.55 -5.33,-1.74 -9.96,-4.29 -13.67,-7.53 -3.71,-3.24 -6.6,-7.53 -8.68,-12.39 -2.08,-4.98 -3.01,-10.65 -3.01,-17.14 0,-5.21 1.27,-10.42 3.94,-15.75 2.55,-5.33 7.07,-10.19 13.43,-14.59 6.37,-4.4 15.06,-8.11 25.83,-11 10.89,-3.01 24.55,-4.63 41,-4.98l0 -6.14c0,-8.45 -1.74,-14.48 -5.21,-18.3 -3.48,-3.71 -8.45,-5.67 -14.83,-5.67 -5.1,0 -9.27,0.58 -12.51,1.62 -3.24,1.16 -6.14,2.32 -8.68,3.71 -2.55,1.39 -4.98,2.67 -7.41,3.71 -2.43,1.16 -5.33,1.62 -8.57,1.62 -3.01,0 -5.45,-0.7 -7.53,-2.2 -2.08,-1.51 -3.71,-3.24 -4.98,-5.33l-7.76 -13.43 -0.34 -0.11zm77.6 65.44c-8.57,0.35 -15.75,1.16 -21.31,2.2 -5.56,1.16 -9.96,2.55 -13.2,4.17 -3.24,1.62 -5.45,3.59 -6.72,5.67 -1.27,2.08 -1.85,4.4 -1.85,6.95 0,4.86 1.39,8.34 4.05,10.31 2.67,1.97 6.6,3.01 11.81,3.01 5.56,0 10.42,-0.93 14.59,-2.89 4.17,-1.97 8.34,-5.1 12.62,-9.5l0 -20.04 -0 0.11z"/>
     <path class="fil0" d="M1300.28 3186.06c2.78,-2.55 5.67,-4.98 8.57,-7.18 3.01,-2.2 6.14,-4.05 9.5,-5.67 3.36,-1.62 7.07,-2.78 11,-3.59 3.94,-0.81 8.23,-1.27 12.86,-1.27 7.87,0 14.83,1.39 20.96,4.05 6.02,2.78 11.23,6.49 15.4,11.35 4.17,4.86 7.3,10.65 9.5,17.37 2.08,6.72 3.24,14.01 3.24,21.89l0 91.61 -43.09 -0.01 0 -91.61c0,-7.07 -1.62,-12.51 -4.86,-16.45 -3.24,-3.94 -7.99,-5.91 -14.36,-5.91 -4.75,0 -9.15,1.04 -13.32,3.01 -4.17,1.97 -8.11,4.75 -12.05,8.11l0 102.85 -43.08 0 0 -144.08 26.64 0c5.33,0 8.92,2.43 10.54,7.18l2.55 8.34zm41.12 -64.16c2.2,0 4.05,-0.58 5.45,-1.74 1.39,-1.16 2.08,-3.59 2.08,-7.41l26.17 -0c0,5.79 -0.81,11.12 -2.43,15.75 -1.62,4.63 -3.82,8.68 -6.72,11.93 -2.89,3.24 -6.26,5.79 -10.19,7.53 -3.94,1.74 -8.11,2.67 -12.62,2.67 -3.48,0 -6.6,-0.58 -9.61,-1.62 -3.01,-1.04 -5.67,-2.2 -8.23,-3.59 -2.55,-1.27 -4.86,-2.43 -6.95,-3.59 -2.08,-1.04 -3.94,-1.62 -5.45,-1.62 -2.2,0 -3.94,0.58 -5.33,1.85 -1.27,1.27 -1.97,3.82 -1.97,7.53l-26.4 -0c0,-5.79 0.81,-11.12 2.55,-15.75 1.62,-4.63 3.94,-8.68 6.83,-12.05 2.89,-3.36 6.26,-5.91 10.19,-7.76 3.94,-1.85 8.11,-2.67 12.51,-2.67 3.48,0 6.6,0.58 9.61,1.62 3.01,1.04 5.79,2.2 8.23,3.59 2.43,1.39 4.75,2.43 6.83,3.59 2.08,1.04 3.94,1.62 5.45,1.62l-0 0.13z"/>
     <path class="fil0" d="M1485.36 3168.22c10.89,0 20.85,1.74 29.88,5.1 9.03,3.48 16.68,8.34 23.17,14.71 6.49,6.37 11.46,14.13 15.06,23.28 3.59,9.15 5.33,19.34 5.33,30.81 0,11.46 -1.74,21.89 -5.33,31.04 -3.59,9.27 -8.57,17.02 -15.06,23.51 -6.49,6.49 -14.13,11.35 -23.17,14.83 -9.03,3.48 -18.99,5.21 -29.88,5.21 -10.89,0 -21.08,-1.74 -30.11,-5.21 -9.03,-3.48 -16.79,-8.45 -23.4,-14.83 -6.49,-6.49 -11.58,-14.24 -15.17,-23.51 -3.59,-9.27 -5.33,-19.57 -5.33,-31.04 0,-11.47 1.74,-21.66 5.33,-30.81 3.59,-9.15 8.57,-16.91 15.17,-23.28 6.49,-6.37 14.36,-11.35 23.4,-14.71 9.03,-3.48 19.11,-5.1 30.11,-5.1zm0 116.63c9.96,0 17.26,-3.48 21.89,-10.54 4.63,-6.95 7.07,-17.61 7.07,-31.85 0,-14.24 -2.32,-24.9 -7.07,-31.85 -4.63,-6.95 -11.93,-10.42 -21.89,-10.42 -9.96,0 -17.61,3.48 -22.35,10.42 -4.75,6.95 -7.07,17.61 -7.07,31.85 0,14.24 2.32,24.9 7.07,31.85 4.75,6.95 12.16,10.54 22.35,10.54z"/>
     <path class="fil0" d="M1672.06 3202.04c-1.16,1.74 -2.32,3.01 -3.59,3.71 -1.27,0.7 -2.89,1.16 -4.75,1.16 -2.08,0 -4.05,-0.46 -6.14,-1.27 -2.08,-0.93 -4.29,-1.85 -6.6,-2.89 -2.32,-1.04 -4.98,-1.97 -7.99,-2.89 -3.01,-0.93 -6.37,-1.27 -10.19,-1.27 -5.45,0 -9.61,1.04 -12.62,3.13 -3.01,2.08 -4.4,4.98 -4.4,8.68 0,2.67 0.93,4.86 2.89,6.72 1.85,1.74 4.4,3.36 7.53,4.63 3.13,1.39 6.72,2.67 10.65,3.82 3.94,1.16 8.11,2.55 12.28,4.05 4.17,1.51 8.23,3.24 12.28,5.21 3.94,1.97 7.53,4.4 10.65,7.41 3.13,2.89 5.67,6.49 7.53,10.65 1.85,4.17 2.89,9.15 2.89,15.06 0,7.18 -1.27,13.67 -3.94,19.69 -2.55,6.02 -6.49,11.23 -11.58,15.52 -5.1,4.4 -11.46,7.76 -18.99,10.19 -7.53,2.43 -16.21,3.59 -26.06,3.59 -4.86,0 -9.84,-0.46 -14.71,-1.39 -4.86,-0.93 -9.61,-2.2 -14.24,-3.71 -4.63,-1.62 -8.8,-3.48 -12.74,-5.67 -3.94,-2.2 -7.18,-4.52 -9.96,-7.07l9.96 -15.87c1.16,-1.85 2.55,-3.36 4.29,-4.4 1.74,-1.04 3.94,-1.62 6.6,-1.62 2.55,0 4.75,0.58 6.72,1.62 1.97,1.04 4.17,2.32 6.49,3.59 2.32,1.27 4.98,2.55 8.11,3.59 3.13,1.16 7.07,1.62 11.7,1.62 3.36,0 6.14,-0.35 8.45,-1.04 2.32,-0.7 4.17,-1.62 5.56,-2.89 1.39,-1.27 2.43,-2.55 3.01,-4.05 0.7,-1.51 0.93,-3.01 0.93,-4.63 0,-2.89 -0.93,-5.21 -2.89,-7.07 -1.97,-1.85 -4.52,-3.48 -7.64,-4.75 -3.13,-1.39 -6.72,-2.55 -10.77,-3.71 -4.05,-1.16 -8.11,-2.43 -12.28,-3.94 -4.17,-1.51 -8.23,-3.24 -12.28,-5.33 -4.05,-2.08 -7.64,-4.75 -10.77,-7.87 -3.13,-3.24 -5.67,-7.07 -7.64,-11.7 -1.97,-4.63 -2.89,-10.19 -2.89,-16.79 0,-6.14 1.16,-11.93 3.59,-17.49 2.32,-5.56 5.91,-10.31 10.65,-14.48 4.75,-4.17 10.65,-7.53 17.84,-9.96 7.18,-2.43 15.52,-3.71 25.02,-3.71 5.21,0 10.19,0.46 15.06,1.39 4.86,0.93 9.38,2.2 13.67,3.94 4.29,1.62 8.11,3.59 11.7,5.91 3.48,2.32 6.6,4.75 9.27,7.41l-9.73 15.17 0.11 -0z"/>
    </g>
   </g>
   <g>
    <path class="fil2" d="M3723.21 628.43l-187.39 0 0 184.38 187.39 0c66.6,0 102.38,-30.69 102.38,-93.23 0,-62.54 -38.92,-91.15 -102.38,-91.15l0 0zm85.01 577.7l-128.1 -258.16 -144.43 0 0 258.16 -143.38 -0 0 -717.04 333.9 0c135.16,0 246.92,74.82 246.92,227.47 0,107.6 -46.09,175.12 -137.24,211.02l137.24 278.66 -164.92 0 0 -0.12z"/>
    <path class="fil2" d="M4300.91 980.75c-24.55,-15.4 -48.18,-22.58 -98.33,-22.58 -53.28,0 -82,24.55 -82,67.64 0,37.87 21.54,71.69 82,71.69 46.09,0 82.93,-23.51 98.33,-49.22l0 -67.64 0 0 0 0.11zm0 225.38l0 -35.9c-25.59,26.64 -70.65,47.14 -120.92,47.14 -100.41,0 -200.71,-61.5 -200.71,-191.56 0,-118.83 96.25,-178.24 218.2,-178.24 49.11,0 80.96,10.19 103.42,21.54l0 -26.64c0,-37.87 -25.59,-68.68 -76.79,-68.68 -64.51,0 -98.33,9.27 -147.55,35.9l-54.32 -98.33c62.54,-35.79 114.78,-54.32 201.87,-54.32 130.07,0 218.2,67.64 218.2,188.44l0 360.54 -141.42 -0 0 0.11z"/>
    <path class="fil2" d="M4514.02 668.39l141.41 0 0 537.75 -141.41 0 0 -537.75 0 0zm70.65 -44.01c-44.01,0 -80.96,-36.83 -80.96,-80.96 0,-44.12 36.83,-80.96 80.96,-80.96 44.12,0 80.96,36.83 80.96,80.96 0,44.12 -36.83,80.96 -80.96,80.96z"/>
    <polygon class="fil2" points="4737.32,1206.14 4737.32,530.1 4878.62,459.45 4878.62,1206.14 "/>
    <path class="fil2" d="M5161.45 1217.49c-85.01,0 -167.94,-24.55 -225.38,-62.54l47.14 -107.6c57.33,31.74 117.79,49.22 186.47,49.22 55.36,0 71.69,-13.32 71.69,-41 0,-24.55 -19.46,-36.83 -78.87,-54.32 -129.02,-38.92 -212.06,-70.65 -212.06,-184.38 0,-113.73 89.06,-159.83 215.07,-159.83 67.64,0 141.42,20.5 198.75,52.24l-45.05 111.65c-53.28,-28.72 -111.65,-42.97 -156.7,-42.97 -57.33,0 -72.73,11.23 -72.73,34.86 0,23.63 16.33,31.74 111.65,62.54 96.25,31.74 179.29,66.6 179.29,174.19 0,123.92 -98.33,167.94 -219.25,167.94l-0.01 0z"/>
    <path class="fil2" d="M3667.97 2069.45c-187.51,0 -313.4,-143.38 -313.4,-369.81 0,-226.43 131.11,-369.81 318.62,-369.81 146.51,0 224.34,68.68 271.48,179.29l-136.2 56.29c-26.64,-53.28 -59.41,-93.23 -137.24,-93.23 -107.6,0 -168.98,94.28 -168.98,227.35 0,133.08 62.54,229.44 170.02,229.44 98.33,0 132.15,-46.09 140.37,-108.64l-113.74 -0.01 0 -134.23 257.12 0 0 94.28c0,184.38 -121.84,288.85 -287.81,288.85l-0.23 0.23z"/>
    <path class="fil2" d="M4023.41 1520.35l141.42 0 0 537.75 -141.42 0 0 -537.75 0 0zm70.65 -44.01c-44.01,0 -80.96,-36.83 -80.96,-80.96 0,-44.12 36.83,-80.96 80.96,-80.96 44.12,0 80.96,36.83 80.96,80.96 0,44.12 -36.83,80.96 -80.96,80.96z"/>
    <path class="fil2" d="M4556.06 1685.28c-22.58,-20.5 -50.15,-34.86 -82,-34.86 -55.36,0 -91.15,23.63 -91.15,116.75l0 290.94 -141.41 0 0 -537.75 141.42 0 0 35.79c24.55,-25.59 60.46,-47.14 110.61,-47.14 46.09,0 80.96,18.42 99.37,37.87l-36.83 138.29 0 0.11z"/>
    <polygon class="fil2" points="4619.53,2058.1 4619.53,1382.06 4760.95,1311.42 4760.95,2058.1 "/>
    <path class="fil2" d="M5043.66 2069.45c-85.01,0 -167.94,-24.55 -225.38,-62.54l47.14 -107.6c57.33,31.74 117.79,49.22 186.47,49.22 55.36,0 71.69,-13.32 71.69,-41 0,-24.55 -19.46,-36.83 -78.87,-54.32 -129.02,-38.92 -212.06,-70.65 -212.06,-184.38 0,-113.73 89.06,-159.83 215.07,-159.83 67.64,0 141.42,20.5 198.75,52.24l-45.05 111.65c-53.28,-28.72 -111.65,-42.97 -156.7,-42.97 -57.33,0 -72.73,11.23 -72.73,34.86 0,23.63 16.33,31.74 111.65,62.54 96.25,31.74 179.29,66.6 179.29,174.08 0,123.92 -98.33,168.05 -219.25,168.05l-0.01 0z"/>
    <path class="fil2" d="M3502 2551.95l0 0c0,-133.19 61.5,-227.35 168.98,-227.35 77.83,0 110.61,39.96 137.24,93.23l136.2 -56.29c-47.14,-110.61 -124.97,-179.29 -271.48,-179.29 -187.51,0 -318.62,151.61 -318.62,369.81l-0 0.01c0,218.2 131.11,369.81 318.62,369.81 146.51,0 224.34,-68.68 271.48,-179.29l-136.2 -56.29c-26.64,53.28 -59.41,93.23 -137.24,93.23 -107.6,0 -168.98,-94.28 -168.98,-227.35l0 0 0 -0.23z"/>
    <path class="fil2" d="M4318.17 2685.03c-24.55,-15.4 -48.18,-22.58 -98.33,-22.58 -53.28,0 -82,24.55 -82,67.64 0,37.87 21.54,71.69 82,71.69 46.09,0 82.93,-23.51 98.33,-49.22l0 -67.64 0 -0 0 0.12zm0 225.38l0 -35.9c-25.59,26.64 -70.65,47.14 -120.92,47.14 -100.41,0 -200.71,-61.5 -200.71,-191.56 0,-118.83 96.25,-178.24 218.2,-178.24 49.11,0 80.96,10.19 103.42,21.54l0 -26.64c0,-37.87 -25.59,-68.68 -76.79,-68.68 -64.51,0 -98.33,9.27 -147.55,35.9l-54.32 -98.33c62.54,-35.79 114.78,-54.32 201.87,-54.32 130.07,0 218.2,67.64 218.2,188.44l0 360.54 -141.42 -0.01 0 0.12z"/>
    <polygon class="fil2" points="4532.44,2921.64 4532.44,2245.61 4673.74,2174.96 4673.74,2921.64 "/>
    <path class="fil2" d="M4754.58 2383.9l141.41 0 0 537.75 -141.41 0 0 -537.75 0 0zm70.65 -44.01c-44.01,0 -80.96,-36.83 -80.96,-80.96 0,-44.12 36.83,-80.96 80.96,-80.96 44.12,0 80.96,36.83 80.96,80.96 0,44.12 -36.83,80.96 -80.96,80.96z"/>
   </g>
  </g>
 </g>
</svg>
